# xmcd CD database file
#
# Track frame offsets:
#	175
#	24155
#	44838
#	59285
#	73023
#	88843
#	109200
#	122218
#	140350
#	157078
#	174940
#	196215
#	211968
#	241380
#	255963
#	282920
#
# Disc length: 3973 seconds
#
# Revision: 3
# Processed by: cddbd v1.4PL0 Copyright (c) Steve Scherf et al.
# Submitted via: CDex 1.40Release
#
DISCID=e70f8310
DTITLE=The Band - The Best Of "Across The Great Divide"
DYEAR=1900
DGENRE=
TTITLE0=Tears Of Rage
TTITLE1=The Weight
TTITLE2=I Shall Be Released
TTITLE3=Rag Mama Rag
TTITLE4=The Night They Drove Old Dixie Down
TTITLE5=Up On Cripple Creek
TTITLE6=Across The Great Divide
TTITLE7=Shape I'm In
TTITLE8=Stage Fright
TTITLE9=Life Is A Carnival
TTITLE10=Don't Do It
TTITLE11=Ophelia
TTITLE12=It Makes No Difference
TTITLE13=Twilight
TTITLE14=Back To Memphis
TTITLE15=She Knows
EXTD=
EXTT0=
EXTT1=
EXTT2=
EXTT3=
EXTT4=
EXTT5=
EXTT6=
EXTT7=
EXTT8=
EXTT9=
EXTT10=
EXTT11=
EXTT12=
EXTT13=
EXTT14=
EXTT15=
PLAYORDER=
